{"title":"The.Watch.2012.1080p.BluRay.x264-SPARKS","uid":12444628,"size":8217952237,"categoryP":"video","categoryS":"hd___movies","magnet":"?xt=urn:btih:bf43f6d536ca7da43c7022a82feaea3511766d57&amp;dn=The.Watch.2012.1080p.BluRay.x264-SPARKS&amp;tr=udp%3A%2F%2Ftracker.openbittorrent.com%3A80&amp;tr=udp%3A%2F%2Fopen.demonii.com%3A1337&amp;tr=udp%3A%2F%2Ftracker.coppersurfer.tk%3A6969&amp;tr=udp%3A%2F%2Fexodus.desync.com%3A6969","seeders":0,"leechers":0,"uploader":"vickey1992","files":3,"time":1442614676,"description":"Video\nID                                       : 1\nFormat                                   : AVC\nFormat/Info                              : Advanced Video Codec\nFormat profile                           : High@L4\nFormat settings, CABAC                   : Yes\nFormat settings, ReFrames                : 5 frames\nCodec ID                                 : V_MPEG4/ISO/AVC\nDuration                                 : 1h 41mn\nBit rate                                 : 9 238 Kbps\nWidth                                    : 1 920 pixels\nHeight                                   : 816 pixels\nDisplay aspect ratio                     : 2.35:1\nFrame rate mode                          : Constant\nFrame rate                               : 23.976 fps\nColor space                              : YUV\nChroma subsampling                       : 4:2:0\nBit depth                                : 8 bits\nScan type                                : Progressive\nBits/(Pixel*Frame)                       : 0.246\nStream size                              : 6.43 GiB (84%)\nWriting library                          : x264 core 128 r2216 198a7ea\nEncoding settings                        : cabac=1 / ref=5 / deblock=1:0:0 / analyse=0x3:0x133 / me=umh / subme=7 / psy=1 / psy_rd=1.00:0.00 / mixed_ref=1 / me_range=16 / chroma_me=1 / trellis=1 / 8x8dct=1 / cqm=0 / deadzone=21,11 / fast_pskip=0 / chroma_qp_offset=-2 / threads=12 / lookahead_threads=2 / sliced_threads=0 / nr=0 / decimate=1 / interlaced=0 / bluray_compat=0 / constrained_intra=0 / bframes=3 / b_pyramid=2 / b_adapt=2 / b_bias=0 / direct=3 / weightb=1 / open_gop=0 / weightp=2 / keyint=250 / keyint_min=23 / scenecut=40 / intra_refresh=0 / rc_lookahead=50 / rc=2pass / mbtree=1 / bitrate=9238 / ratetol=1.0 / qcomp=0.60 / qpmin=0 / qpmax=69 / qpstep=4 / cplxblur=20.0 / qblur=0.5 / ip_ratio=1.40 / aq=1:1.00\nLanguage                                 : English\nDefault                                  : Yes\nForced                                   : No\n\nAudio\nID                                       : 2\nFormat                                   : DTS\nFormat/Info                              : Digital Theater Systems\nMode                                     : 16\nFormat settings, Endianness              : Big\nCodec ID                                 : A_DTS\nDuration                                 : 1h 41mn\nBit rate mode                            : Constant\nBit rate                                 : 1 509 Kbps\nChannel(s)                               : 6 channels\nChannel positions                        : Front: L C R, Side: L R, LFE\nSampling rate                            : 48.0 KHz\nBit depth                                : 24 bits\nCompression mode                         : Lossy\nStream size                              : 1.07 GiB (14%)\nLanguage                                 : English\nDefault                                  : Yes\nForced                                   : No\n\nText\nID                                       : 3\nFormat                                   : UTF-8\nCodec ID                                 : S_TEXT/UTF8\nCodec ID/Info                            : UTF-8 Plain Text\nLanguage                                 : English\nDefault                                  : No\nForced                                   : No\n\nMenu\n00:00:00.000                             : en:00:00:00.000\n00:04:17.257                             : en:00:04:17.257\n00:07:04.507                             : en:00:07:04.507\n00:09:58.807                             : en:00:09:58.807\n00:12:23.660                             : en:00:12:23.660\n00:18:01.747                             : en:00:18:01.747\n00:20:08.207                             : en:00:20:08.207\n00:22:10.538                             : en:00:22:10.538\n00:24:21.001                             : en:00:24:21.001\n00:29:13.627                             : en:00:29:13.627\n00:32:18.061                             : en:00:32:18.061\n00:33:15.911                             : en:00:33:15.911\n00:37:53.855                             : en:00:37:53.855\n00:39:25.238                             : en:00:39:25.238\n00:42:14.532                             : en:00:42:14.532\n00:47:40.149                             : en:00:47:40.149\n00:51:35.259                             : en:00:51:35.259\n00:55:15.020                             : en:00:55:15.020\n00:57:11.637                             : en:00:57:11.637\n00:59:47.000                             : en:00:59:47.000\n01:01:12.919                             : en:01:01:12.919\n01:05:16.663                             : en:01:05:16.663\n01:06:48.379                             : en:01:06:48.379\n01:09:24.160                             : en:01:09:24.160\n01:12:33.558                             : en:01:12:33.558\n01:14:26.045                             : en:01:14:26.045\n01:18:41.675                             : en:01:18:41.675\n01:20:22.026                             : en:01:20:22.026\n01:22:05.879                             : en:01:22:05.879\n01:25:33.295                             : en:01:25:33.295\n01:28:48.573                             : en:01:28:48.573\n01:35:36.814                             : en:01:35:36.814","torrent":{"xt":"urn:btih:bf43f6d536ca7da43c7022a82feaea3511766d57","amp;dn":"The.Watch.2012.1080p.BluRay.x264-SPARKS","amp;tr":["udp%3A%2F%2Ftracker.openbittorrent.com%3A80","udp%3A%2F%2Fopen.demonii.com%3A1337","udp%3A%2F%2Ftracker.coppersurfer.tk%3A6969","udp%3A%2F%2Fexodus.desync.com%3A6969"],"infoHash":"bf43f6d536ca7da43c7022a82feaea3511766d57","infoHashBuffer":{"type":"Buffer","data":[191,67,246,213,54,202,125,164,60,112,34,168,47,234,234,53,17,118,109,87]},"announce":[],"urlList":[]}}